<?xml version="1.0" standalone="no"?>
<!DOCTYPE svg PUBLIC "-//W3C//DTD SVG 20010904//EN"
 "http://www.w3.org/TR/2001/REC-SVG-20010904/DTD/svg10.dtd">
<svg version="1.0" xmlns="http://www.w3.org/2000/svg"
 width="512.000000pt" height="512.000000pt" viewBox="0 0 512.000000 512.000000"
 preserveAspectRatio="xMidYMid meet">

<g transform="translate(0.000000,512.000000) scale(0.100000,-0.100000)"
fill="#000000" stroke="none">
<path d="M70 4857 c-13 -7 -35 -28 -47 -46 l-23 -34 0 -961 c0 -935 1 -962 20
-993 41 -67 -36 -64 1175 -61 l1095 3 32 33 33 32 0 985 0 985 -33 32 -32 33
-1098 2 c-865 2 -1102 0 -1122 -10z"/>
<path d="M2835 4860 c-11 -4 -31 -20 -45 -35 l-25 -27 0 -984 0 -984 33 -32
32 -33 1098 -2 c865 -2 1102 0 1122 10 13 7 35 28 47 46 l23 34 0 962 0 962
-23 34 c-12 18 -34 39 -47 46 -20 10 -261 13 -1110 12 -597 0 -1094 -4 -1105
-9z"/>
<path d="M63 2340 c-67 -40 -63 21 -63 -1037 0 -933 1 -959 20 -990 41 -67
-36 -64 1175 -61 l1095 3 32 33 33 32 0 985 0 985 -33 32 -32 33 -1098 3
c-1074 2 -1098 2 -1129 -18z"/>
<path d="M2835 2350 c-11 -4 -31 -20 -45 -35 l-25 -27 0 -984 0 -984 33 -32
32 -33 1098 -2 c865 -2 1102 0 1122 10 13 7 35 28 47 46 l23 34 0 962 0 962
-23 34 c-12 18 -34 39 -47 46 -20 10 -261 13 -1110 12 -597 0 -1094 -4 -1105
-9z"/>
</g>
</svg>
